Coordinates
version=1
nRows=25
nColumns=23
inDegrees=yes

Units are S.I. units (second, meters, Newtons, ...)
If the header above contains a line with 'inDegrees', this indicates whether rotational values are in degrees (yes) or radians (no).

endheader
time	pelvis_tilt	pelvis_list	pelvis_rotation	pelvis_tx	pelvis_ty	pelvis_tz	hip_flexion_r	hip_adduction_r	hip_rotation_r	knee_angle_r	knee_angle_r_beta	ankle_angle_r	subtalar_angle_r	mtp_angle_r	hip_flexion_l	hip_adduction_l	hip_rotation_l	knee_angle_l	knee_angle_l_beta	ankle_angle_l	subtalar_angle_l	mtp_angle_l
      0.00000000	      3.05945425	     -1.71731363	     -6.09751480	      2.24419524	      1.01406307	      1.05949408	     -0.08688886	      4.59631751	      1.76243982	     39.06329320	      0.68178308	     28.34000238	     20.46017653	      0.00000000	     19.42303457	     -8.35598853	     -4.95489285	     90.81221777	      1.58497220	     -1.75254028	    -12.04162243	      0.00000000
      0.00666667	      2.69635709	     -1.31992548	     -5.63749186	      2.24602717	      1.02012657	      1.05877951	     -1.52286807	      4.00796045	      1.38432537	     37.26995950	      0.65048351	     26.98185782	     21.07906887	      0.00000000	     20.44543013	     -7.70590782	     -5.17448459	     88.46749341	      1.54404904	     -0.40494906	    -11.72184276	      0.00000000
      0.01333333	      2.53179803	     -1.00519556	     -5.19161400	      2.24804179	      1.02644568	      1.05810898	     -3.29950084	      3.56837413	      1.15400843	     35.19250785	      0.61422513	     25.00449391	     21.57363764	      0.00000000	     21.07058844	     -7.09335133	     -5.38399279	     85.94517052	      1.50002620	      0.92399580	    -11.38372319	      0.00000000
      0.02000000	      2.32886273	     -0.70122148	     -4.75092638	      2.25011560	      1.03270066	      1.05748492	     -5.08562455	      3.22681000	      1.09103672	     32.91794003	      0.57452644	     22.28639076	     21.37012802	      0.00000000	     21.61725273	     -6.48400430	     -5.59416813	     83.30362009	      1.45392245	      2.25493140	    -10.85979175	      0.00000000
      0.02666667	      2.04357129	     -0.45826547	     -4.30701151	      2.25232697	      1.03888099	      1.05689362	     -6.80905261	      3.04322000	      1.23678185	     30.51840479	      0.53264665	     19.07883071	     20.58182882	      0.00000000	     22.13283052	     -5.92440296	     -5.76669168	     80.51975559	      1.40533485	      3.50732280	    -10.23558998	      0.00000000
      0.03333333	      1.51850417	      0.00098064	     -3.81066885	      2.25457071	      1.04458072	      1.05592985	     -8.01459879	      2.44343659	      0.55881893	     28.55324289	      0.49834810	     15.85485046	     20.97687739	      0.00000000	     22.83321362	     -5.01150276	     -5.88350167	     77.57734457	      1.35398009	      4.60929754	     -9.73340105	      0.00000000
      0.04000000	      0.97411267	      0.31785568	     -3.39299418	      2.25675241	      1.05022739	      1.05517327	     -9.13647293	      2.02612634	      0.00285757	     26.63916320	      0.46494111	     12.58111688	     21.07709975	      0.00000000	     23.44768199	     -4.33095549	     -6.07124102	     74.52228650	      1.30065927	      5.57161633	     -9.25309089	      0.00000000
      0.04666667	      1.05429210	      0.22473388	     -2.84902640	      2.25933581	      1.05692905	      1.05442856	    -11.43037069	      2.45977473	      1.01907517	     23.70270588	      0.41369026	      8.47580121	     18.56942318	      0.00000000	     23.20482758	     -4.02022922	     -6.04944941	     71.21366342	      1.24291290	      6.40774596	     -8.58342475	      0.00000000
      0.05333333	      0.57004537	      0.34168920	     -2.34898765	      2.26176176	      1.06256056	      1.05351521	    -12.64263474	      2.41275686	      0.97938393	     21.66630734	      0.37814840	      4.82678943	     17.61448803	      0.00000000	     23.54111413	     -3.46123160	     -6.06612093	     67.82670109	      1.18379925	      7.15106994	     -8.00699940	      0.00000000
      0.06000000	     -0.07845074	      0.51844809	     -1.81187385	      2.26411088	      1.06765128	      1.05244383	    -13.36281913	      2.15874284	      0.20226189	     20.25210107	      0.35346584	      1.72452588	     17.59913658	      0.00000000	     23.99226314	     -2.79957140	     -6.05277150	     64.32609953	      1.12270223	      7.81974447	     -7.39317809	      0.00000000
      0.06666667	     -0.46499385	      0.47790036	     -1.39901611	      2.26654175	      1.07300239	      1.05163025	    -14.60997291	      2.38075705	      0.95719253	     18.35505268	      0.32035610	     -1.72243830	     15.74906308	      0.00000000	     24.01680885	     -2.44856060	     -6.14669658	     60.64998826	      1.05854199	      8.35672944	     -6.76783126	      0.00000000
      0.07333333	     -1.17753889	      0.56659197	     -0.99178973	      2.26874882	      1.07738637	      1.05072602	    -14.93893843	      2.17872864	      0.25730142	     17.62516200	      0.30761711	     -4.13583952	     15.70781815	      0.00000000	     24.37025548	     -1.93854196	     -6.26001801	     56.93505601	      0.99370419	      8.90511623	     -5.98372598	      0.00000000
      0.08000000	     -2.01501217	      0.54974797	     -0.64106833	      2.27088462	      1.08132156	      1.04989864	    -14.96592433	      2.14165425	      0.00379248	     17.30628481	      0.30205165	     -5.71247740	     15.78747965	      0.00000000	     24.78483251	     -1.59126949	     -6.46259086	     53.14179658	      0.92749932	      9.33745974	     -5.20308929	      0.00000000
      0.08666667	     -2.50666314	      0.59380416	     -0.31717686	      2.27289844	      1.08506033	      1.04913473	    -15.24885645	      1.97361148	     -0.50833996	     17.24705782	      0.30101795	     -7.36985043	     15.33046171	      0.00000000	     24.75616017	     -1.16115374	     -6.68513003	     49.27391629	      0.85999207	      9.77699476	     -4.32630505	      0.00000000
      0.09333333	     -2.99221801	      0.62571496	     -0.01308763	      2.27485728	      1.08834095	      1.04837357	    -15.40059356	      1.84780937	     -0.79699739	     17.55941559	      0.30646962	     -8.41665670	     14.78257263	      0.00000000	     24.66835639	     -0.74800863	     -6.95016480	     45.37185715	      0.79188830	     10.17782677	     -3.37712160	      0.00000000
      0.10000000	     -3.47579465	      0.64959994	      0.23945368	      2.27666547	      1.09103574	      1.04769295	    -15.36523565	      1.70884912	     -1.09386390	     18.32215566	      0.31978194	     -8.94419979	     14.25872486	      0.00000000	     24.55408293	     -0.36103619	     -7.26567967	     41.49800111	      0.72427675	     10.57498082	     -2.36199885	      0.00000000
      0.10666667	     -4.02449409	      0.80757652	      0.41610991	      2.27826336	      1.09299686	      1.04706801	    -14.88194918	      1.22785547	     -2.17464291	     19.92917146	      0.34782966	     -8.64328527	     14.89357901	      0.00000000	     24.48538053	      0.18195531	     -7.60551171	     37.66496736	      0.65737769	     10.98065264	     -1.30271317	      0.00000000
      0.11333333	     -4.47977057	      0.92692895	      0.60043517	      2.27963427	      1.09463302	      1.04645978	    -14.55311547	      0.93196485	     -2.51496253	     21.45704700	      0.37449612	     -8.41939178	     14.32016871	      0.00000000	     24.29649962	      0.69765927	     -7.89799812	     33.86302047	      0.59102120	     11.30503846	     -0.24120565	      0.00000000
      0.12000000	     -5.13593052	      1.38968114	      0.69781403	      2.28065712	      1.09518826	      1.04579699	    -13.42271184	     -0.24027879	     -4.66580554	     24.29751921	      0.42407171	     -7.00513280	     16.50760350	      0.00000000	     24.29641574	      1.64936441	     -8.02316855	     30.08047314	      0.52500330	     11.50624346	      0.29687541	      0.00000000
      0.12666667	     -5.50553286	      1.67494166	      0.81769546	      2.28167162	      1.09578321	      1.04529242	    -12.96506605	     -0.79188320	     -5.02320808	     26.36500337	      0.46015612	     -6.38148295	     15.85141482	      0.00000000	     23.97582848	      2.38876868	     -8.06614516	     26.43785963	      0.46142770	     11.78462171	      1.25336527	      0.00000000
      0.13333333	     -6.12920540	      2.37007069	      0.95173403	      2.28243388	      1.09535548	      1.04453378	    -11.83144255	     -2.30172642	     -7.00281333	     29.42419327	      0.51354905	     -4.79384291	     17.97751211	      0.00000000	     23.79072938	      3.76766728	     -7.29308393	     22.59928393	      0.39443191	     11.65658492	      0.68142614	      0.00000000
      0.14000000	     -6.51373751	      2.94677339	      1.08719415	      2.28315397	      1.09484654	      1.04401036	    -11.13298882	     -3.43780463	     -7.99831594	     32.07452702	      0.55980610	     -3.74165810	     18.55891443	      0.00000000	     23.30668188	      4.94516440	     -6.37351973	     18.88383882	      0.32958516	     11.43337650	      0.37351730	      0.00000000
      0.14666667	     -6.78517007	      3.52562224	      1.21199040	      2.28386041	      1.09402086	      1.04365543	    -10.57196097	     -4.52775147	     -8.73211087	     34.67658663	      0.60522061	     -2.89153166	     18.82908318	      0.00000000	     22.63690772	      6.07524001	     -5.14729042	     15.27842505	      0.26665882	     11.15605860	     -0.09411485	      0.00000000
      0.15333333	     -6.91336878	      4.01211926	      1.33076634	      2.28453027	      1.09289871	      1.04349799	    -10.16706224	     -5.45818511	     -9.23543405	     37.22344764	      0.64967172	     -2.21835043	     18.82800584	      0.00000000	     21.80369047	      7.00977544	     -3.79575610	     11.90945029	      0.20785912	     10.74263717	     -0.48088258	      0.00000000
      0.16000000	     -6.94936956	      4.42061442	      1.52017505	      2.28515651	      1.09143722	      1.04337699	     -9.86175878	     -6.22717875	     -9.59339816	     39.72687715	      0.69336481	     -1.75289283	     18.53331285	      0.00000000	     20.93726168	      7.77742946	     -2.43206628	      8.95827311	      0.15635136	     10.40945990	     -0.62936989	      0.00000000
